<?xml version="1.0" encoding="UTF-8"?>
<svg version="1.1" xmlns="http://www.w3.org/2000/svg" width="66" height="79">
<path d="M0 0 C2.29894595 1.14394666 4.58950305 2.30196012 6.875 3.47265625 C7.90625 3.99730469 8.9375 4.52195312 10 5.0625 C11.546875 5.85333984 11.546875 5.85333984 13.125 6.66015625 C17.8799624 8.87612378 22.00910718 9.2228125 27.25 9.5625 C28.51328125 9.64628906 29.7765625 9.73007813 31.078125 9.81640625 C32.04234375 9.87699219 33.0065625 9.93757812 34 10 C34.61465676 52.22691913 34.61465676 52.22691913 21.3125 66.375 C15.0270784 72.2622501 7.7904512 77.31758339 -1 78 C-11.58447734 75.02951765 -21.59215986 65.37471973 -27 56 C-32.09602372 44.97227022 -32.14861019 34.40681654 -32.0625 22.4375 C-32.05798828 21.23802734 -32.05347656 20.03855469 -32.04882812 18.80273438 C-32.03713769 15.86843641 -32.02075138 12.93424551 -32 10 C-31.11699219 9.97421875 -30.23398437 9.9484375 -29.32421875 9.921875 C-17.88679373 9.38133075 -9.00642601 7.20514081 0 0 Z " fill="#0D447D" transform="translate(32,0)"/>
<path d="M0 0 C3.00115743 1.09132997 5.51659447 2.31790429 8.25 4 C14.88769114 7.86480285 22.50953864 8.21126394 30 9 C30.05880857 12.95826931 30.09386513 16.91642392 30.125 20.875 C30.14175781 21.98359375 30.15851562 23.0921875 30.17578125 24.234375 C30.25767896 38.15698492 27.6425067 48.64363054 18.08984375 59.07421875 C12.70425648 64.03701225 6.49367566 68.60507638 -1 69 C-3.5546875 68.00390625 -3.5546875 68.00390625 -5.875 66.5625 C-7.04675781 65.85287109 -7.04675781 65.85287109 -8.2421875 65.12890625 C-8.82226562 64.75636719 -9.40234375 64.38382812 -10 64 C-10 63.34 -10 62.68 -10 62 C-8.68 62 -7.36 62 -6 62 C-6 62.66 -6 63.32 -6 64 C-5.236875 63.814375 -4.47375 63.62875 -3.6875 63.4375 C-1 63 -1 63 2 64 C2.66 63.34 3.32 62.68 4 62 C4.99 61.505 4.99 61.505 6 61 C4.68 60.34 3.36 59.68 2 59 C2 57.02 2 55.04 2 53 C3.11375 52.855625 4.2275 52.71125 5.375 52.5625 C8.82142047 52.21627965 8.82142047 52.21627965 11 51 C11.66 51.33 12.32 51.66 13 52 C12.505 49.03 12.505 49.03 12 46 C11.34 46 10.68 46 10 46 C9.67 46.99 9.34 47.98 9 49 C8.34 48.67 7.68 48.34 7 48 C6.67 48.99 6.34 49.98 6 51 C4.68 51 3.36 51 2 51 C2.33 50.34 2.66 49.68 3 49 C3.66 49.33 4.32 49.66 5 50 C5 48.68 5 47.36 5 46 C5.66 46 6.32 46 7 46 C7 45.34 7 44.68 7 44 C7.66 43.34 8.32 42.68 9 42 C8.01 41.34 7.02 40.68 6 40 C5.67 40.99 5.34 41.98 5 43 C4.67 42.34 4.34 41.68 4 41 C4.33 40.34 4.66 39.68 5 39 C5.66 39 6.32 39 7 39 C6.67 36.36 6.34 33.72 6 31 C5.01 31 4.02 31 3 31 C2.67 28.03 2.34 25.06 2 22 C1.34 22 0.68 22 0 22 C0 21.34 0 20.68 0 20 C1.32 19.67 2.64 19.34 4 19 C4 18.34 4 17.68 4 17 C7.465 16.505 7.465 16.505 11 16 C11 15.34 11 14.68 11 14 C13.64738916 12.5393715 14.89448334 12 18 12 C18 11.34 18 10.68 18 10 C13.28438812 11.2346724 13.28438812 11.2346724 8.8125 13.125 C5.00727968 14.96200291 -0.09517231 14.30160923 -4 13 C-4.66 13.66 -5.32 14.32 -6 15 C-6.66 13.68 -7.32 12.36 -8 11 C-10.97 11 -13.94 11 -17 11 C-17 10.34 -17 9.68 -17 9 C-17.99 8.67 -18.98 8.34 -20 8 C-18.72125 7.773125 -17.4425 7.54625 -16.125 7.3125 C-10.75523874 6.13626658 -3.9810132 3.9810132 0 0 Z " fill="#0D447D" transform="translate(32,5)"/>
<path d="M0 0 C2.29894595 1.14394666 4.58950305 2.30196012 6.875 3.47265625 C7.90625 3.99730469 8.9375 4.52195312 10 5.0625 C11.546875 5.85333984 11.546875 5.85333984 13.125 6.66015625 C17.8799624 8.87612378 22.00910718 9.2228125 27.25 9.5625 C28.51328125 9.64628906 29.7765625 9.73007813 31.078125 9.81640625 C32.04234375 9.87699219 33.0065625 9.93757812 34 10 C34.61465676 52.22691913 34.61465676 52.22691913 21.3125 66.375 C15.0270784 72.2622501 7.7904512 77.31758339 -1 78 C-11.58447734 75.02951765 -21.59215986 65.37471973 -27 56 C-32.09602372 44.97227022 -32.14861019 34.40681654 -32.0625 22.4375 C-32.05798828 21.23802734 -32.05347656 20.03855469 -32.04882812 18.80273438 C-32.03713769 15.86843641 -32.02075138 12.93424551 -32 10 C-31.11699219 9.97421875 -30.23398437 9.9484375 -29.32421875 9.921875 C-17.88679373 9.38133075 -9.00642601 7.20514081 0 0 Z M-4.3125 7.375 C-9.96984114 10.65990776 -14.78915798 12.27147861 -21.3125 13.125 C-22.56675781 13.29257813 -23.82101563 13.46015625 -25.11328125 13.6328125 C-26.06589844 13.75398437 -27.01851562 13.87515625 -28 14 C-28.05880857 17.95826931 -28.09386513 21.91642392 -28.125 25.875 C-28.14175781 26.98359375 -28.15851562 28.0921875 -28.17578125 29.234375 C-28.25363219 42.46903416 -26.06828254 53.81131732 -16.75 63.8125 C-11.81893289 68.34995643 -6.16728659 71.68029726 0 74.25 C7.87286112 73.59392824 15.81378832 66.6758969 21 61 C29.1099211 49.50193409 30.16402632 39.7997923 30.0625 26.0625 C30.05798828 24.90169922 30.05347656 23.74089844 30.04882812 22.54492188 C30.03710647 19.69656066 30.0206976 16.84830778 30 14 C29.09443359 13.8774585 28.18886719 13.75491699 27.25585938 13.62866211 C17.66302287 12.30341321 9.9285701 10.60801299 2 5 C-0.66765948 5 -2.01294201 6.03777804 -4.3125 7.375 Z " fill="#B19D6D" transform="translate(32,0)"/>
<path d="M0 0 C0.66 0 1.32 0 2 0 C4.125 6.75 4.125 6.75 3 9 C3.99 9 4.98 9 6 9 C6 10.65 6 12.3 6 14 C6.66 14.33 7.32 14.66 8 15 C7.67 15.66 7.34 16.32 7 17 C6.34 17 5.68 17 5 17 C5 17.99 5 18.98 5 20 C5.33 19.34 5.66 18.68 6 18 C7.32 18.66 8.64 19.32 10 20 C10 20.66 10 21.32 10 22 C9.01 22 8.02 22 7 22 C7 22.66 7 23.32 7 24 C6.34 24 5.68 24 5 24 C5 25.32 5 26.64 5 28 C4.01 28.33 3.02 28.66 2 29 C3.32 29 4.64 29 6 29 C6.33 27.68 6.66 26.36 7 25 C7.66 25.33 8.32 25.66 9 26 C9.33 25.34 9.66 24.68 10 24 C10.66 24 11.32 24 12 24 C12.33 25.98 12.66 27.96 13 30 C11.54182203 30.16802051 10.0834516 30.33437143 8.625 30.5 C7.81289063 30.5928125 7.00078125 30.685625 6.1640625 30.78125 C4 31 4 31 2 31 C2.33 32.98 2.66 34.96 3 37 C4.65 37.33 6.3 37.66 8 38 C7.67 38.99 7.34 39.98 7 41 C6.01 41 5.02 41 4 41 C3.34 41.99 2.68 42.98 2 44 C2 43.34 2 42.68 2 42 C0.515 42.495 0.515 42.495 -1 43 C-1 42.34 -1 41.68 -1 41 C-1.928125 40.814375 -1.928125 40.814375 -2.875 40.625 C-5 40 -5 40 -7 38 C-3.535 37.505 -3.535 37.505 0 37 C0 35.02 0 33.04 0 31 C-1.98567708 31.03255208 -3.97135417 31.06510417 -5.95703125 31.09765625 C-8 31 -8 31 -11 30 C-11 28.68 -11 27.36 -11 26 C-10.01 25.67 -9.02 25.34 -8 25 C-7.67 25.66 -7.34 26.32 -7 27 C-6.34 26.34 -5.68 25.68 -5 25 C-4.67 26.32 -4.34 27.64 -4 29 C-2.68 29 -1.36 29 0 29 C-0.99 28.67 -1.98 28.34 -3 28 C-3 26.68 -3 25.36 -3 24 C-3.66 24 -4.32 24 -5 24 C-5 23.34 -5 22.68 -5 22 C-5.99 21.67 -6.98 21.34 -8 21 C-8 20.34 -8 19.68 -8 19 C-6.125 18.375 -6.125 18.375 -4 18 C-3.34 18.66 -2.68 19.32 -2 20 C-2.33 19.67 -2.66 19.34 -3 19 C-3 18.34 -3 17.68 -3 17 C-3.66 17 -4.32 17 -5 17 C-5.33 16.01 -5.66 15.02 -6 14 C-5.34 14 -4.68 14 -4 14 C-4 12.35 -4 10.7 -4 9 C-3.01 9 -2.02 9 -1 9 C-1.20625 8.443125 -1.4125 7.88625 -1.625 7.3125 C-2.10695211 4.340462 -1.26565028 2.68020059 0 0 Z " fill="#A19671" transform="translate(32,27)"/>
<path d="M0 0 C3.00115743 1.09132997 5.51659447 2.31790429 8.25 4 C12.27080119 6.37875214 16.43491546 7.21327341 21 8 C20.67 8.99 20.34 9.98 20 11 C19.113125 10.95875 18.22625 10.9175 17.3125 10.875 C13.99562968 11.00016492 12.00515264 11.70047453 9 13 C8.01 13 7.02 13 6 13 C5.030625 13.37125 4.06125 13.7425 3.0625 14.125 C0 15 0 15 -2.375 14.125 C-2.91125 13.75375 -3.4475 13.3825 -4 13 C-4.66 13.66 -5.32 14.32 -6 15 C-6.66 13.68 -7.32 12.36 -8 11 C-10.97 11 -13.94 11 -17 11 C-17 10.34 -17 9.68 -17 9 C-17.99 8.67 -18.98 8.34 -20 8 C-18.72125 7.773125 -17.4425 7.54625 -16.125 7.3125 C-10.75523874 6.13626658 -3.9810132 3.9810132 0 0 Z " fill="#0E447A" transform="translate(32,5)"/>
<path d="M0 0 C2.48319402 2.48319402 2.26011201 3.96666047 2.2734375 7.36132812 C2.26570313 8.04646484 2.25796875 8.73160156 2.25 9.4375 C2.25773437 10.11876953 2.26546875 10.80003906 2.2734375 11.50195312 C2.25889434 15.21409442 2.10940418 16.83589372 0 20 C-0.66 20 -1.32 20 -2 20 C-2.33 20.66 -2.66 21.32 -3 22 C-5.76276177 21.47731534 -8.3260876 20.89130413 -11 20 C-11 19.01 -11 18.02 -11 17 C-9.02 16.67 -7.04 16.34 -5 16 C-4.97421875 15.18015625 -4.9484375 14.3603125 -4.921875 13.515625 C-4.86515625 12.43796875 -4.8084375 11.3603125 -4.75 10.25 C-4.70359375 9.18265625 -4.6571875 8.1153125 -4.609375 7.015625 C-3.89410286 3.47594492 -2.74415095 2.26118038 0 0 Z " fill="#A59871" transform="translate(54,18)"/>
<path d="M0 0 C2.4375 1.25 2.4375 1.25 5 4 C5.75380387 7.99197545 5.92983667 11.94328377 6 16 C7.98 16.33 9.96 16.66 12 17 C12 17.99 12 18.98 12 20 C5.25 22 5.25 22 3 22 C3 21.34 3 20.68 3 20 C2.34 20 1.68 20 1 20 C-1.43044139 16.35433792 -1.26310692 13.64363257 -1.1875 9.4375 C-1.1865332 8.40979492 -1.1865332 8.40979492 -1.18554688 7.36132812 C-1.14067963 2.28135927 -1.14067963 2.28135927 0 0 Z " fill="#A99A71" transform="translate(11,18)"/>
<path d="M0 0 C2.97 0 5.94 0 9 0 C9.33 1.32 9.66 2.64 10 4 C10.66 3.34 11.32 2.68 12 2 C12.99 2 13.98 2 15 2 C15.33 2.66 15.66 3.32 16 4 C16.66 4 17.32 4 18 4 C18.66 3.34 19.32 2.68 20 2 C22.125 2.375 22.125 2.375 24 3 C24.66 2.01 25.32 1.02 26 0 C26.99 0.33 27.98 0.66 29 1 C31.63804589 0.60602665 31.63804589 0.60602665 34 0 C34 0.66 34 1.32 34 2 C32 4 32 4 29.375 4.125 C28.59125 4.08375 27.8075 4.0425 27 4 C27 4.66 27 5.32 27 6 C26.01 6 25.02 6 24 6 C23.67 6.66 23.34 7.32 23 8 C22.01 7.67 21.02 7.34 20 7 C20 7.66 20 8.32 20 9 C17.69 9.33 15.38 9.66 13 10 C13 9.01 13 8.02 13 7 C12.01 7.33 11.02 7.66 10 8 C10 7.34 10 6.68 10 6 C9.01 6 8.02 6 7 6 C7 5.34 7 4.68 7 4 C5.35 4 3.7 4 2 4 C1.34 2.68 0.68 1.36 0 0 Z " fill="#9F9572" transform="translate(16,15)"/>
<path d="M0 0 C0.66 0 1.32 0 2 0 C4.125 6.75 4.125 6.75 3 9 C3.99 9 4.98 9 6 9 C5.63287028 11.71675995 5.27255401 13.61063713 3.6875 15.875 C2 17 2 17 -0.0625 16.875 C-2 16 -2 16 -4 13 C-4 11.68 -4 10.36 -4 9 C-3.01 9 -2.02 9 -1 9 C-1.20625 8.443125 -1.4125 7.88625 -1.625 7.3125 C-2.10695211 4.340462 -1.26565028 2.68020059 0 0 Z " fill="#7E8375" transform="translate(32,27)"/>
<path d="M0 0 C-0.57352893 3.87132028 -2.48704352 6.08172796 -5 9 C-6.32 8.67 -7.64 8.34 -9 8 C-8.67 5.69 -8.34 3.38 -8 1 C-2.25 0 -2.25 0 0 0 Z " fill="#A49871" transform="translate(22,40)"/>
<path d="M0 0 C2.64 0.33 5.28 0.66 8 1 C8.33 2.98 8.66 4.96 9 7 C7.35 7.66 5.7 8.32 4 9 C2.10134397 6.02819057 0.64544429 3.48539917 0 0 Z " fill="#AA9B71" transform="translate(44,40)"/>
<path d="M0 0 C2.125 0.9375 2.125 0.9375 4 2 C4 2.66 4 3.32 4 4 C4.66 4 5.32 4 6 4 C6.33 3.34 6.66 2.68 7 2 C7.99 1.34 8.98 0.68 10 0 C10.66 0.66 11.32 1.32 12 2 C11.67 2.66 11.34 3.32 11 4 C10.34 4 9.68 4 9 4 C9 4.66 9 5.32 9 6 C5.71303767 6.79953138 4.28976808 7.09658936 1 6 C1 5.34 1 4.68 1 4 C0.34 4 -0.32 4 -1 4 C-1.33 3.01 -1.66 2.02 -2 1 C-1.34 0.67 -0.68 0.34 0 0 Z " fill="#A99A71" transform="translate(28,40)"/>
<path d="M0 0 C0.99 0.66 1.98 1.32 3 2 C3.33 1.34 3.66 0.68 4 0 C5.32 0.66 6.64 1.32 8 2 C8 2.66 8 3.32 8 4 C7.05125 4.309375 6.1025 4.61875 5.125 4.9375 C2.13919592 5.87394742 2.13919592 5.87394742 0 7 C-1.32 5.68 -2.64 4.36 -4 3 C-2.68 2.67 -1.36 2.34 0 2 C0 1.34 0 0.68 0 0 Z " fill="#948F73" transform="translate(34,45)"/>
<path d="M0 0 C2.1519437 3.22791555 2.20086443 4.28400809 2 8 C0.02 8.33 -1.96 8.66 -4 9 C-4 8.01 -4 7.02 -4 6 C-4.66 5.34 -5.32 4.68 -6 4 C-5.01 3.67 -4.02 3.34 -3 3 C-3 2.34 -3 1.68 -3 1 C-2.01 0.67 -1.02 0.34 0 0 Z " fill="#979073" transform="translate(46,25)"/>
<path d="M0 0 C1.98 0.495 1.98 0.495 4 1 C4 1.66 4 2.32 4 3 C4.99 3.33 5.98 3.66 7 4 C6.01 5.485 6.01 5.485 5 7 C5 7.66 5 8.32 5 9 C2.03 8.505 2.03 8.505 -1 8 C-0.67 5.36 -0.34 2.72 0 0 Z " fill="#979073" transform="translate(19,25)"/>
<path d="M0 0 C0.33 0.66 0.66 1.32 1 2 C3.64 2 6.28 2 9 2 C9.33 1.34 9.66 0.68 10 0 C9.59316505 2.35964273 9.10185661 3.85934088 7.6875 5.8125 C6 7 6 7 3.9375 6.875 C2 6 2 6 0 3 C0 2.01 0 1.02 0 0 Z " fill="#576E78" transform="translate(28,37)"/>
<path d="M0 0 C1.32 0 2.64 0 4 0 C4 0.66 4 1.32 4 2 C4.66 2 5.32 2 6 2 C6 1.34 6 0.68 6 0 C7.32 0.33 8.64 0.66 10 1 C9.67 1.66 9.34 2.32 9 3 C5.71585695 3.95067299 4.30306592 4.10102197 1 3 C0.67 2.01 0.34 1.02 0 0 Z " fill="#AD9D70" transform="translate(28,36)"/>
<path d="M0 0 C2.00720923 0.28674418 4.0085944 0.61866701 6 1 C6 1.99 6 2.98 6 4 C4.35 4.33 2.7 4.66 1 5 C0.34 3.68 -0.32 2.36 -1 1 C-0.67 0.67 -0.34 0.34 0 0 Z " fill="#938E73" transform="translate(17,34)"/>
<path d="M0 0 C0.66 0.33 1.32 0.66 2 1 C1.67 2.32 1.34 3.64 1 5 C-0.32 5 -1.64 5 -3 5 C-3.33 4.01 -3.66 3.02 -4 2 C-2.68 2 -1.36 2 0 2 C0 1.34 0 0.68 0 0 Z " fill="#707C76" transform="translate(34,45)"/>
<path d="M0 0 C0.33 1.65 0.66 3.3 1 5 C-0.65 4.67 -2.3 4.34 -4 4 C-4 3.01 -4 2.02 -4 1 C-2 0 -2 0 0 0 Z " fill="#979072" transform="translate(28,45)"/>
</svg>
